<svg height="141px" width="141px" version="1.1" id="Layer_1" xmlns="http://www.w3.org/2000/svg" xmlns:xlink="http://www.w3.org/1999/xlink" viewBox="0 0 503.467 503.467" xml:space="preserve" fill="#000000"><g id="SVGRepo_bgCarrier" stroke-width="0"></g><g id="SVGRepo_tracerCarrier" stroke-linecap="round" stroke-linejoin="round"></g><g id="SVGRepo_iconCarrier"> <g transform="translate(1 1)"> <path style="fill:#598552;" d="M250.733,352.707c14.507,0,25.6,11.093,25.6,25.6s-11.093,25.6-25.6,25.6 c-14.507,0-25.6-11.093-25.6-25.6S236.227,352.707,250.733,352.707z M498.2,250.307c0,96.427-55.467,180.907-136.533,221.013 c0,0-51.2,26.453-110.933,26.453c65.707,0,119.467-62.293,119.467-128s-53.76-119.467-119.467-119.467 s-119.467-53.76-119.467-119.467s53.76-128,119.467-128C387.267,2.84,498.2,113.773,498.2,250.307z"></path> <path style="fill:#FFFAD4;" d="M276.333,378.307c0-14.507-11.093-25.6-25.6-25.6c-14.507,0-25.6,11.093-25.6,25.6 s11.093,25.6,25.6,25.6C265.24,403.907,276.333,392.813,276.333,378.307 M250.733,250.307c65.707,0,119.467,53.76,119.467,119.467 s-53.76,128-119.467,128C114.2,497.773,3.267,386.84,3.267,250.307c0-97.28,56.32-181.76,137.387-221.867 c0,0,50.347-25.6,110.08-25.6c-65.707,0-119.467,62.293-119.467,128S185.027,250.307,250.733,250.307z M250.733,105.24 c14.507,0,25.6,11.093,25.6,25.6s-11.093,25.6-25.6,25.6c-14.507,0-25.6-11.093-25.6-25.6S236.227,105.24,250.733,105.24z"></path> </g> <path style="fill:#51565F;" d="M251.733,503.04C112.64,503.04,0,390.4,0,251.307C0,154.88,53.76,68.693,139.947,26.027 c1.707-0.853,4.267,0,5.973,1.707c0.853,1.707,0,4.267-1.707,5.973C60.587,74.667,8.533,158.294,8.533,252.16 c0,133.973,109.227,243.2,243.2,243.2c61.44,0,115.2-58.027,115.2-123.733c0-63.147-52.053-115.2-115.2-115.2 C183.467,256.427,128,200.96,128,132.693C128,61.867,186.027,0.427,251.733,0.427c139.093,0,251.733,112.64,251.733,251.733 c0,95.573-52.907,181.76-139.093,225.28c-1.707,0.853-4.267,0-5.973-1.707c-0.853-1.707,0-4.267,1.707-5.973 c82.773-41.813,133.973-124.587,133.973-217.6c0-133.973-109.227-243.2-243.2-243.2c-61.44,0-115.2,58.027-115.2,123.733 c0,63.147,52.053,115.2,115.2,115.2c68.267,0,123.733,55.467,123.733,123.733C375.467,441.6,317.44,503.04,251.733,503.04z M251.733,409.173c-16.213,0-29.867-13.653-29.867-29.867c0-16.213,13.653-29.867,29.867-29.867s29.867,13.653,29.867,29.867 C281.6,395.52,267.947,409.173,251.733,409.173z M251.733,357.973c-11.947,0-21.333,9.387-21.333,21.333 c0,11.947,9.387,21.333,21.333,21.333c11.947,0,21.333-9.387,21.333-21.333C273.067,367.36,263.68,357.973,251.733,357.973z M251.733,161.707c-16.213,0-29.867-13.653-29.867-29.867s13.653-29.867,29.867-29.867S281.6,115.627,281.6,131.84 S267.947,161.707,251.733,161.707z M251.733,110.507c-11.947,0-21.333,9.387-21.333,21.333c0,11.947,9.387,21.333,21.333,21.333 c11.947,0,21.333-9.387,21.333-21.333C273.067,119.893,263.68,110.507,251.733,110.507z"></path> </g></svg>